<svg xmlns="http://www.w3.org/2000/svg" data-name="Layer 1" width="902.419" height="826.207" viewBox="0 0 902.419 826.207">
    <path d="m578.159 659.811 8.671 19.444c-7.048-1.122-13.603 4.898-13.75 12.629s6.139 15.774 13.188 16.873c-1.347 6.002-7.16 8.648-12.207 11.074s-10.485 6.45-10.11 12.846c.301 5.135 4.548 9.669 9.058 11.492s9.241 1.542 13.808 1.237c-6.92 7.24-7.595 20.847-1.517 30.61s18.216 14.57 27.305 10.812c-6.422 7.988-5.026 22.617 2.943 30.862 8.035 8.31 19.678 9.115 29.858 8.24a132.238 132.238 0 0 0 71.006-28.14c7.782-6.184 15.05-13.456 19.49-22.942s5.747-21.496 1.612-32.29c1.115 13.522 14.65 24.202 26.826 24.8s22.807-6.26 31.84-14.081c12.015-10.4 23.138-24.98 21.489-42.967-.816-8.905-4.706-17.47-8.52-25.765l-7.396-16.083c-2.986-6.493-6.04-13.095-10.533-18.543s-10.731-9.667-16.973-9.627c1.427-6.52 2.86-13.283 1.665-20.21s-5.776-14.101-12.005-15.724c-7.926-2.064-14.644 5.25-22.615 4.561-7.671-.664-14.01-8.362-21.46-11.412a17.178 17.178 0 0 0-18.536 3.206c-4.722 4.61-6.69 12.398-4.996 19.767 1.484 6.456 5.434 12.15 7.832 18.375s2.77 14.231-1.835 17.631c-5.557 4.103-14.014-1.48-18.356-8.234s-6.833-14.934-12.323-20.614c-6.48-6.705-16.622-8.276-23.293-3.609s-9.222 15.12-5.859 24.004c2.75 7.264 9.05 14.613 6.864 21.454-2.309 7.23-12.412 6.315-18.507 1.205s-10.14-12.806-16.161-18.03c-6.114-5.306-14.098-7.63-21.107-6.146a21.73 21.73 0 0 0-15.573 13.915" fill="#e6e6e6"/>
    <path d="m718.556 605.17-17.993 8.36a13.812 13.812 0 0 1-8.734 1.177c-2.612-.618-4.377-2.215-4.84-4.384l-4.187-19.554c-.79-3.688 2.264-8.053 7.264-10.376l9.936-4.616c5-2.323 10.305-1.843 12.614 1.14l12.245 15.81c1.358 1.754 1.44 4.132.227 6.527a13.812 13.812 0 0 1-6.532 5.916ZM585.043 335.344c-10.935 5.09-11.116 27.895-7.687 35.283l6.214 13.375 39.61-18.403-6.214-13.375c-3.436-7.385-20.98-21.954-31.923-16.88ZM478.602 527.36a4.333 4.333 0 0 1-4.07-5.82 4.3 4.3 0 0 1 2.243-2.44l204.554-95.038a4.33 4.33 0 0 1 5.752 2.101 4.336 4.336 0 0 1-2.102 5.752h-.001l-204.554 95.038a4.306 4.306 0 0 1-1.822.407Z" fill="#3f3d56"/>
    <path fill="#e6e6e6" d="m580.14 401.294 58.471-27.166 91.72 197.413-58.471 27.166z"/>
    <path d="M419.114 125.618c-10.935 5.09-11.116 27.895-7.687 35.283l6.214 13.375 39.61-18.403-6.214-13.375c-3.436-7.385-20.98-21.954-31.923-16.88Zm245.015 502.246-17.993 8.36a13.812 13.812 0 0 1-8.734 1.177c-2.612-.618-4.377-2.215-4.841-4.383l-4.187-19.554c-.79-3.689 2.265-8.053 7.264-10.376l9.937-4.617c4.999-2.322 10.305-1.843 12.614 1.14l12.244 15.811c1.358 1.753 1.44 4.132.228 6.527a13.812 13.812 0 0 1-6.532 5.915ZM608.81 655.31l-17.993 8.36a13.812 13.812 0 0 1-8.734 1.177c-2.612-.618-4.377-2.215-4.84-4.383l-4.187-19.555c-.79-3.688 2.264-8.053 7.263-10.375l9.937-4.617c5-2.323 10.305-1.843 12.614 1.14l12.245 15.81c1.358 1.754 1.44 4.133.227 6.527a13.812 13.812 0 0 1-6.532 5.916Z" fill="#3f3d56"/>
    <path fill="#e6e6e6" d="m429.813 225.148 58.471-27.167 185.402 399.05-58.471 27.166z"/>
    <path fill="#3f3d56" d="m548.951 403.691-6.561-14.437 3.777-1.742 6.541 14.391 94.715 210.006-3.773 1.753m-20.699-221.971-6.561-14.437 3.777-1.742 6.541 14.391 94.715 210.006-3.773 1.753"/>
    <path d="m515.88 229.917-79.225 36.81c-5.044-7.848-20.25-48.06-16.836-59.992l-2.562-11.377 54.703-25.416 7.322 9.007c10.87 3.335 32.029 41.106 36.598 50.968Z" fill="#e6e6e6"/>
    <path d="m474.246 170.428-56.45 26.228c-2.085.968-4.304.612-4.957-.795a1.952 1.952 0 0 1-.172-.643l-2.922-31.167c-.125-1.335 1.017-2.848 2.761-3.658l37.437-17.394c1.744-.81 3.637-.707 4.576.249l21.936 22.334c1.122 1.142.513 3.097-1.36 4.367a6.08 6.08 0 0 1-.849.48Z" fill="#e6e6e6"/>
    <path d="M518.522 414.617a7.626 7.626 0 0 1-1.814-.213 5.604 5.604 0 0 1-3.896-3.026l-34.513-74.283c-1.428-3.075.49-7.007 4.275-8.766l50.536-23.48c3.785-1.76 8.027-.688 9.456 2.387l34.513 74.283a5.603 5.603 0 0 1-.2 4.929 8.506 8.506 0 0 1-4.075 3.838l-50.535 23.479a8.92 8.92 0 0 1-3.747.852Z" fill="#3f3d56"/>
    <path fill="#e6e6e6" d="m466.964 453.028 58.471-27.166 91.72 197.413-58.471 27.166z"/>
    <path d="m453.398 173.685-17.147 7.966c-3.309 1.538-7.773-1.024-9.95-5.71s-1.255-9.748 2.054-11.286l17.147-7.966c3.308-1.538 7.772 1.024 9.95 5.71s1.255 9.748-2.054 11.286Zm19.61 212.862c-10.935 5.091-11.115 27.895-7.686 35.284l6.214 13.374 39.61-18.403-6.215-13.374c-3.435-7.386-20.98-21.955-31.923-16.881Z" fill="#3f3d56"/>
    <path d="M291.361 341.028c-3.862 2.573-7.815-3.551-3.879-6.01 3.862-2.573 7.815 3.551 3.879 6.01Zm402-88c-3.862 2.573-7.815-3.551-3.879-6.01 3.862-2.573 7.815 3.551 3.879 6.01Zm-274 70c-3.862 2.573-7.815-3.551-3.879-6.01 3.862-2.573 7.815 3.551 3.879 6.01Zm-128 240c-3.862 2.573-7.815-3.551-3.879-6.01 3.862-2.573 7.815 3.551 3.879 6.01Zm197-501c-3.862 2.573-7.815-3.551-3.879-6.01 3.862-2.573 7.815 3.551 3.879 6.01Zm-190 118c-3.862 2.573-7.815-3.551-3.879-6.01 3.862-2.573 7.815 3.551 3.879 6.01ZM571.639 146.2l-2.457-.539.538-2.458-1.638-.359-.539 2.458-2.457-.538-.359 1.638 2.457.539-.538 2.457 1.638.359.539-2.458 2.457.539.359-1.638zM171.542 350.978l-2.457-.539.538-2.457-1.638-.359-.539 2.457-2.458-.538-.359 1.638 2.458.539-.538 2.458 1.638.358.539-2.457 2.457.538.359-1.638z" fill="#e6e6e6"/>
    <path d="M675.43 455.436a8.51 8.51 0 0 1-11.29-4.127l-10.113-21.765a8.5 8.5 0 0 1 15.417-7.163l10.112 21.765a8.51 8.51 0 0 1-4.127 11.29Zm-172 80a8.51 8.51 0 0 1-11.29-4.127l-10.113-21.765a8.5 8.5 0 0 1 15.417-7.163l10.112 21.765a8.51 8.51 0 0 1-4.127 11.29Z" fill="#3f3d56"/>
    <path d="m659.851 407.881-67.806 31.504c-4.317-6.716-17.33-41.133-14.408-51.344l1.434-11.423 40.486-19.863 8.971 7.505c12.64-4.273 31.22 27.048 31.323 43.621Zm-106.209 56.897-67.806 31.504c-4.317-6.717-17.33-41.133-14.409-51.344l1.435-11.423 40.486-19.863 8.971 7.505c12.64-4.274 31.22 27.048 31.323 43.621Z" fill="#e6e6e6"/>
  </svg>
  