<svg xmlns="http://www.w3.org/2000/svg" xmlns:xlink="http://www.w3.org/1999/xlink" data-name="Layer 1" width="100" height="100" viewBox="0 0 300 300">
    <path d="M479.79658,331.15406h-166a5.0058,5.0058,0,0,1-5-5v-56a5.00581,5.00581,0,0,1,5-5h166a5.00573,5.00573,0,0,1,5,5v56A5.00573,5.00573,0,0,1,479.79658,331.15406Z" transform="translate(-251.25787 -219.38283)" fill="#3f3d56"/>
    <rect x="83.53871" y="60.77124" width="44" height="5" fill="#fff"/>
    <circle cx="185.53871" cy="63.77124" r="3" fill="#636bff"/>
    <circle cx="195.53871" cy="63.77124" r="3" fill="#636bff"/>
    <circle cx="205.53871" cy="63.77124" r="3" fill="#636bff"/>
    <path d="M479.79658,402.15406h-166a5.0058,5.0058,0,0,1-5-5v-56a5.00581,5.00581,0,0,1,5-5h166a5.00573,5.00573,0,0,1,5,5v56A5.00573,5.00573,0,0,1,479.79658,402.15406Z" transform="translate(-251.25787 -219.38283)" fill="#3f3d56"/>
    <rect x="83.53871" y="131.77124" width="44" height="5" fill="#fff"/>
    <circle cx="185.53871" cy="134.77124" r="3" fill="#636bff"/>
    <circle cx="195.53871" cy="134.77124" r="3" fill="#636bff"/>
    <circle cx="205.53871" cy="134.77124" r="3" fill="#636bff"/>
    <path d="M479.79658,473.15406h-166a5.0058,5.0058,0,0,1-5-5v-56a5.00581,5.00581,0,0,1,5-5h166a5.00573,5.00573,0,0,1,5,5v56A5.00573,5.00573,0,0,1,479.79658,473.15406Z" transform="translate(-251.25787 -219.38283)" fill="#3f3d56"/>
    <rect x="83.53871" y="202.77124" width="44" height="5" fill="#fff"/>
    <circle cx="185.53871" cy="205.77124" r="3" fill="#636bff"/>
    <circle cx="195.53871" cy="205.77124" r="3" fill="#636bff"/>
    <circle cx="205.53871" cy="205.77124" r="3" fill="#636bff"/>
    </svg>