<svg xmlns="http://www.w3.org/2000/svg" data-name="Layer 1" width="821" height="545" viewBox="0 0 821 545"><path d="M45.367 544.717a34.382 34.382 0 0 0 22.55-44.47c-3.299-9.313-10.775-16.176-15.232-24.852a38.27 38.27 0 0 1 13.656-49.847q1.394-.884 2.861-1.643c.923-.48.107-1.876-.816-1.396a39.904 39.904 0 0 0-19.635 47.532 48.097 48.097 0 0 0 6.76 13.001c2.79 3.99 5.84 7.814 8.25 12.056a33.586 33.586 0 0 1 2.266 28.66 33.152 33.152 0 0 1-18.033 18.315c-1 .414-2.021.772-3.057 1.085a.81.81 0 0 0 .43 1.56Z" fill="#f0f0f0"/><circle cx="68.839" cy="423" r="16" fill="#f0f0f0"/><circle cx="59.839" cy="469" r="10" fill="#f0f0f0"/><path d="M559.31 293.717a34.382 34.382 0 0 1-22.55-44.47c3.299-9.313 10.775-16.176 15.232-24.852a38.27 38.27 0 0 0-13.655-49.847q-1.395-.884-2.862-1.643c-.923-.48-.107-1.876.816-1.396a39.904 39.904 0 0 1 19.635 47.532 48.097 48.097 0 0 1-6.76 13.001c-2.79 3.99-5.84 7.814-8.25 12.056a33.586 33.586 0 0 0-2.266 28.66 33.152 33.152 0 0 0 18.033 18.315c1 .414 2.021.772 3.057 1.085a.81.81 0 0 1-.43 1.56Z" fill="#f0f0f0"/><circle cx="535.839" cy="172" r="16" fill="#f0f0f0"/><circle cx="544.839" cy="218" r="10" fill="#f0f0f0"/><path d="M414.13 128.963h-2.982V47.277A47.277 47.277 0 0 0 363.87 0H190.809a47.277 47.277 0 0 0-47.277 47.277V495.41a47.277 47.277 0 0 0 47.277 47.278H363.87a47.277 47.277 0 0 0 47.278-47.277V187.108h2.982Z" fill="#d1d1d1"/><path d="M365.778 12.3h-22.59a16.774 16.774 0 0 1-15.53 23.109h-99.145a16.774 16.774 0 0 1-15.53-23.11h-21.1a35.306 35.306 0 0 0-35.306 35.307v447.475a35.306 35.306 0 0 0 35.306 35.306h173.895a35.306 35.306 0 0 0 35.306-35.306V47.606A35.306 35.306 0 0 0 365.778 12.3Z" fill="#1e1e1e"/><path d="M348.207 389.444c-30.177-.542-30.172-45.388.001-45.925 30.176.542 30.172 45.388 0 45.925Z" fill="#fff"/><path d="M348.207 389.444c-30.177-.542-30.172-45.388.001-45.925 30.176.542 30.172 45.388 0 45.925Zm0-44.533c-28.348.508-28.343 42.637.001 43.14 28.348-.508 28.343-42.636 0-43.14Z" fill="#e6e6e6"/><path d="M353.112 354.71c-5.661.163-16.67-1.86-16.675 6.868.162 5.66-1.861 16.669 6.867 16.674 5.66-.162 16.669 1.861 16.674-6.866-.162-5.661 1.861-16.67-6.866-16.675Z" fill="#171717"/><path d="M354.583 361.577a1.469 1.469 0 0 1 .007-2.936 1.469 1.469 0 0 1-.007 2.936Zm-6.375.981c5.09-.075 5.09 7.923 0 7.847-5.091.074-5.092-7.922 0-7.847Zm0-1.962c-7.636-.111-7.637 11.884 0 11.771 7.636.112 7.635-11.883 0-11.77ZM209.27 389.444c-30.178-.542-30.173-45.388 0-45.925 30.177.542 30.172 45.388 0 45.925Z" fill="#fff"/><path d="M209.27 389.444c-30.178-.542-30.173-45.388 0-45.925 30.177.542 30.172 45.388 0 45.925Zm0-44.533c-28.349.508-28.344 42.637 0 43.14 28.348-.507 28.343-42.636 0-43.14Z" fill="#e6e6e6"/><path d="M221.737 360.688a21.637 21.637 0 0 1-2.324 2.324c-1.03 11.208-8.029 13.754-13.648 13.754-4.04 0-7.368-1.315-7.257-1.677 5.993.14 6.504-2.32 6.504-2.32-3.482-.515-4.18-2.788-4.18-2.788a1.434 1.434 0 0 0 1.856-.464 4.224 4.224 0 0 1-3.248-4.649 4.839 4.839 0 0 0 2.273.886c-.417-.511-3.933-4.725-1.818-6.909a11.698 11.698 0 0 0 9.902 4.955 4.917 4.917 0 0 1 4.784-5.9c3.252 0 3.95 1.86 3.95 1.86l2.325-1.396c-.047 0-.281 2.324-1.443 2.788Z" fill="#171717"/><path d="M278.738 389.444c-30.177-.542-30.172-45.388.001-45.925 30.177.542 30.172 45.388 0 45.925Z" fill="#fff"/><path d="M278.739 389.444c-30.178-.542-30.173-45.388 0-45.925 30.176.542 30.172 45.388 0 45.925Zm0-44.533c-28.349.508-28.344 42.637 0 43.14 28.348-.507 28.343-42.636 0-43.14Z" fill="#e6e6e6"/><path d="M291.39 366.556a12.76 12.76 0 0 1-10.76 12.604v-8.913h2.97l.567-3.69h-3.537c-.12-3.074-.239-4.798 3.686-4.385v-3.138c-5.879-1.294-8.33 1.686-7.67 7.522h-3.24v3.69h3.24v8.91c-15.248-2.345-13.456-25.413 1.987-25.353a12.755 12.755 0 0 1 12.758 12.752Zm75.364-111.516H190.907a4.094 4.094 0 0 1-4.09-4.089v-108.78a4.094 4.094 0 0 1 4.09-4.09h175.847a4.094 4.094 0 0 1 4.09 4.09v108.78a4.094 4.094 0 0 1-4.09 4.09Z" fill="#171717"/><path d="M366.754 255.04H190.907a4.094 4.094 0 0 1-4.09-4.089v-108.78a4.094 4.094 0 0 1 4.09-4.09h175.847a4.094 4.094 0 0 1 4.09 4.09v108.78a4.094 4.094 0 0 1-4.09 4.09ZM190.907 139.719a2.456 2.456 0 0 0-2.454 2.453v108.78a2.456 2.456 0 0 0 2.454 2.454h175.847a2.456 2.456 0 0 0 2.454-2.454v-108.78a2.456 2.456 0 0 0-2.454-2.453Z" fill="#171717"/><path d="M331.994 187.565H225.668a3.68 3.68 0 0 1 0-7.361h106.326a3.68 3.68 0 1 1 0 7.36Zm0 25.355H225.668a3.68 3.68 0 0 1 0-7.362h106.326a3.68 3.68 0 1 1 0 7.361Z" fill="#636bff"/><path d="M552.744 347.988a12.33 12.33 0 0 0-.356 1.909l-51.428 27.009-11.941-7.52-13.705 16.538 19.846 15.367a9.37 9.37 0 0 0 11.244.172l53.468-38.842a12.295 12.295 0 1 0-7.128-14.633ZM614.75 531l10.311-6.632-20.672-42.928-15.218 9.787L614.75 531z" fill="#ffb6b6"/><path d="m609.954 529.325 20.307-13.06h.001a15.387 15.387 0 0 1 21.264 4.618l.27.421-33.248 21.383Zm-143.769-72.063 79.154-50.678s14.543-1.404 23.271 15.798l52.717 75.724-22.491 15.218-58.497-60.74-40.141 39.698s59.14-9.698 57.14 29.302c-1.587 30.95-82.53 20.333-115.875 14.632a43.726 43.726 0 0 1-30.64-20.975c-3.576-6.203-5.498-13.245-2.494-19.903 8.01-17.754 57.856-38.076 57.856-38.076Z" fill="#2f2e41"/><path d="M426.946 499.615 404.135 495l6.5-111.956 26.247-32.148 15.637-2.769a18.893 18.893 0 0 1 21.615 13.678l6.893 25.18c11.695 19.8-4.688 42.76-6.2 44.8l.852 34.725Z" fill="#636bff"/><path d="m448.185 355.28 1.447-5.12s15.707-11.576 39.707 18.424l-11.5 20.5-25-1Z" fill="#636bff"/><path d="M484.316 315.438c4.45 18.24-13.09 19.595-33.895 24.67s-36.999 11.949-41.448-6.292-4.098-52.582 25.335-59.762c30.447-7.427 45.558 23.143 50.008 41.384Z" fill="#2f2e41"/><circle cx="444.104" cy="314.759" r="26.093" fill="#ffb6b6"/><path d="m414.208 319.417 10.026-2.446 1.402-13.464 3.906 12.17 4.792-1.17.818-7.853 2.278 7.098 35.608-8.686a27.621 27.621 0 0 0-33.38-20.288l-5.161 1.259a27.621 27.621 0 0 0-20.289 33.38Z" fill="#2f2e41"/><path d="M739.841 351.217H563.994a4.094 4.094 0 0 1-4.09-4.09v-108.78a4.094 4.094 0 0 1 4.09-4.09H739.84a4.094 4.094 0 0 1 4.09 4.09v108.78a4.094 4.094 0 0 1-4.09 4.09Z" fill="#1e1e1e"/><path d="M739.841 351.217H563.994a4.094 4.094 0 0 1-4.09-4.09v-108.78a4.094 4.094 0 0 1 4.09-4.09H739.84a4.094 4.094 0 0 1 4.09 4.09v108.78a4.094 4.094 0 0 1-4.09 4.09ZM563.994 235.893a2.456 2.456 0 0 0-2.454 2.454v108.78a2.456 2.456 0 0 0 2.454 2.454H739.84a2.456 2.456 0 0 0 2.454-2.454v-108.78a2.456 2.456 0 0 0-2.454-2.454Z" fill="#00000"/><path d="M705.08 283.74H598.754a3.68 3.68 0 1 1 0-7.36H705.08a3.68 3.68 0 0 1 0 7.36Zm0 25.355H598.754a3.68 3.68 0 1 1 0-7.361H705.08a3.68 3.68 0 0 1 0 7.361Z" fill="#636bff"/><path d="M488.79 443.788a12.33 12.33 0 0 0-1.834.637l-48.952-31.274.611-14.099-21.157-3.703-3.507 24.854a9.37 9.37 0 0 0 5.425 9.85l60.24 27.18a12.295 12.295 0 1 0 9.174-13.445Z" fill="#ffb6b6"/><path d="m440.84 356.005-3.688-4.65s-14.813-4.771-22.813 15.229-.5 39.5-.5 39.5l35 3 2.5-32.5Z" fill="#636bff"/><path d="M820 545H1a1 1 0 0 1 0-2h819a1 1 0 0 1 0 2Z"/></svg>